<svg xmlns="http://www.w3.org/2000/svg" viewBox="0 0 256 256">
<polygon fill="#654FF0" points="192.058,159.984 185.167,191.938 206.834,191.938 199.942,159.984 "/>
<path fill="#654FF0" d="M160.042,0c0.021,0.46,0.021,0.92,0,1.38c0,16.745-14.917,30.62-32.089,30.62C110.625,32,96,18.375,96,1.38
	l0,0C95.974,0.92,95.974,0.46,96,0H0v256h256V0H160.042z M128.042,231.944L111.546,168h-0.213l-15.375,64.042H80L64,136h16.063
	l9.771,60L104,136h16.063l13.875,60.25L144,136h16.125l-16.083,95.944H128.042z M215.959,232.042l-5.845-23.947h-28.52L176,232.042
	h-16.031L184.125,136h24l23.917,96.042H215.959z"/>
</svg>
