<svg xmlns="http://www.w3.org/2000/svg" width="256" height="256" viewBox="0 0 256 256">
<polygon fill="#654FF0" points="189.99,160.303 182.594,193.582 205.619,193.582 197.126,160.303 "/>
<path fill="#654FF0" d="M157.308,0c0.022,0.46,0.022,0.92,0,1.38c0,16.213-13.144,29.353-29.355,29.353
	C111.754,30.72,98.634,17.58,98.647,1.38l0,0c-0.025-0.46-0.025-0.92,0-1.38H0v256h256V0H157.308z M122.174,228.598l-12.49-61.68
	h-0.213l-13.464,61.68H78.831l-19.458-90.63h16.961l11.607,61.705h0.214l13.987-61.705h15.866l12.559,62.465h0.239l13.226-62.465
	h16.65l-21.623,90.63H122.174z M215.561,228.598l-5.78-20.17h-30.52l-4.446,20.17h-16.961l21.933-90.63h26.76l26.666,90.63H215.561z
	"/>
</svg>
